<svg width="409" height="467" viewBox="0 0 409 467" fill="none" xmlns="http://www.w3.org/2000/svg">
<path d="M20.6029 106.709C22.3133 79.9176 34.8846 54.9855 55.4083 37.6805L58.7483 34.8643C83.4219 14.0602 116.722 6.66301 147.883 15.0642L334.837 65.4677L352.243 71.7512C363.583 75.8448 373.887 82.376 382.428 90.8845C391.688 100.109 398.621 111.403 402.655 123.835L403.15 125.36C406.032 134.24 407.5 143.519 407.5 152.855V162.939C407.5 172.6 406.079 182.209 403.282 191.456L346.874 377.952C331.978 427.2 281.688 456.687 231.437 445.637L84.7114 413.371C37.2312 402.93 4.46938 359.41 7.56684 310.894L20.6029 106.709Z" fill="#0C202D" stroke="white" stroke-width="3"/>
<path d="M91.246 326.537L91.1928 326.509L91.1343 326.493C76.8555 322.797 67.7502 315.326 62.3491 305.198C56.9361 295.048 55.2175 282.178 55.8298 267.656C56.8704 242.975 64.6284 213.703 72.1715 185.241C73.5099 180.191 74.8415 175.167 76.1276 170.198C84.6105 137.426 104.995 117.639 130.423 107.883C155.873 98.1175 186.404 98.3917 215.135 105.829C243.792 113.246 273.903 136.842 294.726 166.832C315.548 196.822 327.011 233.1 318.536 265.843C310.045 298.645 286.14 331.522 247.932 347.354C209.735 363.182 157.155 362.009 91.246 326.537Z" stroke="white"/>
<path d="M118.17 305.719L118.143 305.704L118.114 305.697C107.806 303.029 101.224 297.631 97.3191 290.309C93.4085 282.976 92.171 273.688 92.6123 263.222C93.3621 245.439 98.9517 224.348 104.383 203.857C105.346 200.221 106.305 196.605 107.23 193.029C113.347 169.397 128.05 155.124 146.39 148.087C164.741 141.045 186.748 141.245 207.451 146.604C228.116 151.953 249.816 168.963 264.819 190.571C279.822 212.179 288.092 238.332 281.978 261.949C275.857 285.596 258.625 309.298 231.079 320.712C203.539 332.123 165.645 331.27 118.17 305.719Z" stroke="white" stroke-width="0.5"/>
</svg>
