<svg width="125" height="124" viewBox="0 0 125 124" fill="none" xmlns="http://www.w3.org/2000/svg">
<g clip-path="url(#clip0_223_2)">
<path d="M42.6166 55.941C42.6166 56.9417 42.4208 57.9424 42.0184 58.867C41.6159 59.661 41.0503 60.368 40.365 60.9227C39.6689 61.4775 38.864 61.8691 38.0156 62.0975C37.1672 62.3912 36.2644 62.5217 35.3616 62.4999H30.5647V49.4583H35.1658C36.0468 49.4583 36.9605 49.5561 37.8198 49.7519C38.6682 49.9586 39.4514 50.3284 40.1693 50.8288C40.8654 51.3291 41.4419 51.9817 41.8226 52.754C42.4208 53.7003 42.6927 54.8098 42.6166 55.9301V55.941ZM39.3861 55.941C39.4296 55.321 39.2882 54.7119 39.0054 54.168C38.7987 53.7112 38.4507 53.287 38.0265 52.9933C37.624 52.6996 37.1563 52.5147 36.6559 52.4168C36.1338 52.2972 35.6117 52.221 35.0788 52.2102H33.5233V59.7045H35.0788C35.6226 59.7045 36.1338 59.6284 36.6559 59.5087C37.1563 59.4108 37.624 59.215 38.0265 58.9322C38.3963 58.6059 38.7008 58.2035 38.9293 57.7793C39.2773 57.2354 39.4296 56.5828 39.3861 55.9519V55.941Z" fill="white"/>
<path d="M51.5359 52.8956C51.2313 52.5692 50.8615 52.2973 50.459 52.1015C50.0566 51.9057 49.6324 51.8078 49.1864 51.8078C48.958 51.8078 48.7404 51.8622 48.5555 51.9819C48.3488 52.0036 48.1531 52.058 47.979 52.1777C47.805 52.2538 47.6527 52.4061 47.5766 52.5801C47.4569 52.7541 47.4025 52.9499 47.3808 53.1566C47.3046 53.5591 47.5113 53.9615 47.8811 54.1355L48.4576 54.4292C48.7078 54.5598 48.9797 54.6576 49.2517 54.7338C49.7085 54.8643 50.1762 55.0275 50.6222 55.2124C51.079 55.3647 51.5032 55.6148 51.8948 55.9085C52.2755 56.2131 52.6127 56.5829 52.8737 56.9854C53.1674 57.4422 53.2979 58.0078 53.2544 58.5408C53.2762 59.1934 53.1348 59.8678 52.8737 60.466C52.5692 60.9664 52.1994 61.4341 51.7969 61.8366C51.3401 62.2064 50.7962 62.4566 50.2415 62.6306C49.6215 62.8373 48.9688 62.9351 48.3162 62.9243C47.4134 62.9025 46.5215 62.7502 45.6731 62.4457C44.8464 62.152 44.1176 61.6952 43.5194 61.0643L45.5752 59.0194C45.9233 59.4436 46.3475 59.7699 46.8478 59.9874C47.3046 60.2811 47.8703 60.4116 48.4032 60.3899C48.6317 60.3899 48.8601 60.3899 49.0994 60.292C49.306 60.292 49.5018 60.1941 49.6759 60.0853C49.8281 59.9874 49.9695 59.8569 50.0783 59.7046C50.1327 59.498 50.1327 59.2478 50.0783 59.0303C50.0783 58.8236 50.0022 58.606 49.8825 58.432C49.7629 58.2362 49.578 58.1383 49.3822 57.9534C49.1103 57.7794 48.8057 57.6271 48.5011 57.551C48.2074 57.4531 47.8267 57.3552 47.3264 57.1703C46.9239 57.0506 46.5215 56.8766 46.1517 56.6699C45.771 56.4959 45.4011 56.2675 45.0748 55.9955C44.7485 55.691 44.4766 55.3212 44.3026 54.9187C44.0959 54.4619 43.998 53.9506 43.998 53.4503C43.9545 52.7759 44.0959 52.1233 44.4005 51.525C44.705 51.0247 45.0966 50.6005 45.5752 50.2524C46.032 49.9261 46.5759 49.6759 47.1306 49.5563C47.7071 49.404 48.3053 49.3279 48.9036 49.3605C49.6759 49.3605 50.4264 49.491 51.1551 49.7412C51.8513 50.0349 52.5039 50.4156 53.0804 50.9159L51.5359 52.8956Z" fill="white"/>
<path d="M64.6645 62.413C63.7617 62.6088 62.8372 62.7067 61.9126 62.7067C60.9881 62.7067 59.9874 62.5326 59.0846 62.2063C58.2362 61.9126 57.4856 61.4558 56.833 60.8358C56.2021 60.2158 55.7018 59.487 55.3537 58.6821C54.9839 57.8119 54.8316 56.8874 54.8751 55.952C54.8751 54.9839 55.0492 54.0267 55.3537 53.1022C55.7235 52.2972 56.2239 51.5576 56.833 50.9485C57.4639 50.3285 58.2362 49.8499 59.0846 49.578C59.9656 49.2734 60.8902 49.0994 61.8147 49.0994C62.7393 49.0994 63.74 49.2734 64.6645 49.578C65.4695 49.8281 66.2091 50.2523 66.8073 50.8506L64.8821 53.1022C64.5775 52.7215 64.1751 52.406 63.7074 52.2211C63.1635 52.0471 62.587 51.9709 62.0323 52.0144C61.5319 52.0144 61.0316 52.0906 60.5639 52.3081C60.107 52.5039 59.6937 52.7867 59.3891 53.1892C59.0846 53.5699 58.8126 53.9941 58.5951 54.4618C58.3993 54.9621 58.3014 55.506 58.3014 56.039C58.3014 56.572 58.3993 57.1593 58.5951 57.6923C58.7474 58.1709 59.0193 58.6169 59.3891 58.9649C59.759 59.3456 60.1832 59.6393 60.6618 59.846C61.1839 60.0961 61.7604 60.194 62.3151 60.1397C62.6849 60.1397 63.0438 60.1397 63.3919 60.0418C63.6965 59.9874 64.0119 59.8895 64.273 59.7481V57.3225H61.8256V54.7772H67.1228V61.6298C66.3179 61.9561 65.5021 62.2063 64.6537 62.4239L64.6645 62.413Z" fill="white"/>
<path d="M75.6178 62.413H72.4961L67.5905 49.5671H71.1147L74.0624 58.6713H74.1603L77.108 49.5671H80.5343L75.6287 62.413H75.6178Z" fill="white"/>
<path d="M94.7616 55.8431C94.7616 56.7676 94.5875 57.6922 94.283 58.5732C93.9349 59.3781 93.4346 60.1178 92.8146 60.7269C92.1837 61.3469 91.4114 61.8255 90.563 62.0974C89.6602 62.4237 88.6704 62.5978 87.7132 62.5978C86.756 62.5978 85.8423 62.4455 84.983 62.0974C84.1346 61.8037 83.3841 61.3469 82.7315 60.7269C82.0788 60.1287 81.5567 59.3999 81.2522 58.5732C80.9041 57.7031 80.7301 56.7785 80.7736 55.8431C80.7736 54.8968 80.9476 53.9722 81.2522 53.0912C81.6329 52.2971 82.1332 51.5684 82.7315 50.9375C83.3841 50.3392 84.1564 49.8824 84.983 49.567C85.8641 49.2624 86.7886 49.0884 87.7132 49.0884C88.6377 49.0884 89.6384 49.2624 90.563 49.567C91.3897 49.8715 92.1619 50.3392 92.8146 50.9375C93.4672 51.5357 93.9675 52.2645 94.283 53.0912C94.5875 53.9722 94.7616 54.8968 94.7616 55.8431ZM91.4332 55.8431C91.4332 55.2992 91.3353 54.7662 91.1395 54.2659C90.9655 53.7873 90.7153 53.3631 90.3672 52.9933C90.0409 52.6234 89.6384 52.3624 89.1707 52.1992C88.7139 52.0035 88.2027 51.9056 87.7023 51.9056C87.202 51.9056 86.7016 51.9817 86.2339 52.1992C85.7879 52.395 85.3855 52.6561 85.0592 52.9933C84.7546 53.374 84.4827 53.7982 84.2651 54.2659C84.0694 54.7662 83.9715 55.3101 83.9715 55.8431C83.9715 56.3761 84.0694 56.8982 84.2651 57.3985C84.4174 57.8771 84.6893 58.3231 85.0592 58.6711C85.3855 59.041 85.7879 59.302 86.2339 59.4652C86.6907 59.6609 87.202 59.7588 87.7023 59.7588C88.2027 59.7588 88.703 59.6827 89.1707 59.4652C89.6167 59.2911 90.0191 59.0192 90.3672 58.6711C90.6718 58.2904 90.9437 57.8662 91.1395 57.3985C91.3679 56.9199 91.4876 56.3761 91.4876 55.8431H91.4332Z" fill="white"/>
<path d="M42.7902 70.5052L46.2165 67.1768H47.6958L44.052 70.6248L47.9025 74.7255H46.4341L42.8881 70.875V74.7255H41.8113V67.1768H42.9316V70.5052H42.7793H42.7902Z" fill="#0AA9FA"/>
<path d="M53.5803 72.1804C53.5803 72.5502 53.5042 72.9091 53.3846 73.2572C53.254 73.5835 53.0365 73.8881 52.7863 74.1382C52.5144 74.3449 52.2098 74.5407 51.9053 74.7147C51.5572 74.8344 51.1982 74.9105 50.8284 74.9105C50.4586 74.9105 50.0997 74.8344 49.7516 74.7147C49.4253 74.5951 49.1207 74.3884 48.8814 74.1382C48.6312 73.8881 48.4355 73.5835 48.2832 73.2572C48.1309 72.9309 48.0548 72.5502 48.0874 72.1804C48.0874 71.8105 48.1635 71.4516 48.2832 71.1035C48.4028 70.7555 48.6095 70.4726 48.8814 70.2225C49.1316 69.9941 49.4362 69.7983 49.7516 69.646C50.0997 69.5263 50.4695 69.4719 50.8284 69.4502C51.1982 69.4502 51.5572 69.5263 51.9053 69.646C52.2533 69.7656 52.5361 69.9505 52.7863 70.2225C53.0147 70.4944 53.2323 70.7772 53.3846 71.1035C53.5042 71.4516 53.5803 71.8214 53.5803 72.1804ZM52.5035 72.1804C52.5035 71.9519 52.5035 71.7235 52.4056 71.4842L52.1119 70.9077C51.9814 70.7337 51.8074 70.6032 51.6116 70.5053C51.4049 70.3856 51.1656 70.3312 50.9154 70.3095C50.687 70.3095 50.4586 70.3856 50.2411 70.5053C50.0453 70.6032 49.8712 70.7337 49.7407 70.9077C49.6428 71.1035 49.447 71.2884 49.447 71.4842C49.3165 71.9411 49.3165 72.4088 49.447 72.8656L49.7407 73.4421C49.8712 73.6161 50.0453 73.7467 50.2411 73.8228C50.4477 73.9425 50.687 74.0186 50.9154 74.0295C51.1656 74.0295 51.394 73.9533 51.6116 73.8228C51.8074 73.7467 51.9814 73.6161 52.1119 73.4421C52.2098 73.2463 52.4056 73.0614 52.4056 72.8656C52.5035 72.659 52.5579 72.4088 52.5796 72.1695H52.5035V72.1804Z" fill="#0AA9FA"/>
<path d="M55.8319 69.6893V70.4616C55.9298 70.4616 56.0277 70.1679 56.1256 70.0809C56.2018 69.9286 56.2996 69.809 56.4302 69.7002C56.5607 69.5806 56.7347 69.5044 56.9305 69.5044C57.0828 69.4283 57.2351 69.3848 57.4091 69.3848C57.7354 69.4283 58.0617 69.537 58.3554 69.6893C58.5621 69.8198 58.7796 69.983 58.9537 70.1679C59.1495 70.3637 59.28 70.5921 59.3344 70.8641C59.3779 71.1142 59.3779 71.3862 59.3344 71.6363V74.7798H58.3554V71.2991C58.3554 71.1251 58.2793 70.9511 58.1596 70.8205C58.0617 70.8205 57.9638 70.516 57.7789 70.516C57.5831 70.4398 57.3982 70.3963 57.1807 70.4181C56.8 70.4616 56.4519 70.6248 56.2018 70.9184C55.9081 71.2448 55.7775 71.669 55.821 72.0932V74.7363H54.8421V69.7111H55.8428L55.8319 69.6893Z" fill="#0AA9FA"/>
<path d="M63.4786 70.5053H62.3038V74.7256H61.3249V70.5053H60.2807V69.7004H61.2596V68.6235C61.2379 68.3516 61.2596 68.0797 61.3575 67.8295C61.4337 67.6011 61.5316 67.3727 61.6512 67.1334C61.8253 66.9593 62.0319 66.8397 62.2495 66.7527C62.5214 66.6221 62.8042 66.5569 63.1196 66.5569H63.7179L63.62 67.4379H63.1196C62.9674 67.3835 62.7933 67.3835 62.641 67.4379L62.3474 67.7316V69.7004H63.5221L63.4786 70.5053Z" fill="#0AA9FA"/>
<path d="M69.5371 72.1804C69.5371 72.5502 69.4609 72.9091 69.3413 73.2572C69.2108 73.6053 69.015 73.8881 68.7431 74.1382C68.4711 74.3449 68.1883 74.5407 67.8729 74.7147C67.5248 74.8344 67.1659 74.8888 66.796 74.9105C66.4262 74.9105 66.0673 74.8344 65.7192 74.7147C65.3711 74.5951 65.0883 74.4102 64.8382 74.1382C64.6097 73.8663 64.3922 73.5835 64.2399 73.2572C64.0876 72.9309 64.0115 72.5502 64.0441 72.1804C64.0441 71.8105 64.1203 71.4516 64.2399 71.1035C64.3704 70.7772 64.5662 70.4726 64.8382 70.2225C65.1101 69.9941 65.3929 69.7765 65.7192 69.646C66.0673 69.5263 66.4371 69.4502 66.796 69.4502C67.155 69.4502 67.5248 69.5263 67.8729 69.646C68.1992 69.7656 68.5038 69.9723 68.7431 70.2225C68.9932 70.4726 69.189 70.7772 69.3413 71.1035C69.5153 71.4298 69.5697 71.8214 69.5371 72.1804ZM68.5581 72.1804C68.5581 71.9519 68.5581 71.7235 68.4602 71.4842L68.1666 70.9077C68.0469 70.7119 67.8729 70.5814 67.6662 70.5053C67.4595 70.3856 67.2203 70.3312 66.9918 70.3095C66.7417 70.3095 66.5132 70.3856 66.2957 70.5053C66.0999 70.5814 65.9259 70.7337 65.8171 70.9077C65.8171 71.1035 65.5125 71.2884 65.5125 71.4842C65.382 71.9411 65.382 72.4088 65.5125 72.8656L65.8171 73.4421C65.9367 73.6161 66.1108 73.7467 66.2957 73.8228C66.5024 73.9425 66.7417 74.0186 66.9918 74.0295C67.2203 74.0295 67.4704 73.9533 67.6662 73.8228C67.8729 73.7684 68.0469 73.627 68.1666 73.4421C68.2645 73.2463 68.4602 73.0614 68.4602 72.8656C68.4602 72.6698 68.5581 72.3653 68.5581 72.1695V72.1804Z" fill="#0AA9FA"/>
<path d="M70.9076 70.2115V69.6894H71.8321V70.5596C71.9627 70.2877 72.1802 70.0593 72.4304 69.8852C72.6805 69.7112 72.9851 69.5916 73.3005 69.5916H73.7574V70.4617H72.6805C72.5827 70.4617 72.3869 70.6684 72.1802 70.8642C71.9735 71.06 71.9844 71.1579 71.8865 71.3428C71.8104 71.5386 71.7669 71.7235 71.7886 71.941V74.5842H70.8097V70.5052C70.9076 70.6249 70.9076 70.4073 70.9076 70.2115Z" fill="#0AA9FA"/>
<path d="M76.4006 69.8309C76.6943 69.6351 77.0315 69.5372 77.3795 69.5372C77.6841 69.5372 77.9778 69.6134 78.2606 69.733C78.5543 69.9288 78.7827 70.1899 78.935 70.5053C79.1308 70.2116 79.3592 69.9506 79.6311 69.733C79.9248 69.5372 80.262 69.4393 80.6101 69.4285C80.9037 69.4829 81.1865 69.559 81.4585 69.7004C81.6651 69.8309 81.8609 69.9941 82.035 70.179C82.2307 70.3748 82.3613 70.6249 82.4374 70.8751C82.5136 71.1253 82.5571 71.3755 82.5353 71.6474V74.7909H81.5564V71.8976C81.5999 71.7018 81.5999 71.4951 81.5564 71.2993C81.5564 71.1253 81.4802 70.9513 81.3606 70.8207C81.2409 70.8207 81.1539 70.5162 81.056 70.5162C80.9581 70.5162 80.7623 70.4183 80.4795 70.4183C80.2729 70.4183 80.0771 70.4183 79.8813 70.5162C79.7073 70.6141 79.5767 70.7446 79.5006 70.9186C79.5006 71.1144 79.3048 71.2123 79.3048 71.3972V74.7256H78.3259V71.6256C78.3802 71.4299 78.3802 71.2232 78.3259 71.0274C78.228 70.8316 78.228 70.7337 78.1192 70.6467L77.8255 70.3421C77.6732 70.2878 77.4992 70.2878 77.3469 70.3421C76.9771 70.3421 76.629 70.5379 76.4659 70.8425C76.2157 71.1906 76.0852 71.593 76.0852 72.0172V74.6604H75.1062V69.559H76.0852V70.3313C76.1831 70.1572 76.2918 70.005 76.4115 69.8527L76.4006 69.8309Z" fill="#0AA9FA"/>
<path opacity="0.7" d="M62.7937 0L64.8495 6.27611H71.5171L66.1221 10.181L68.1779 16.4571L62.7828 12.5305L57.4856 16.4571L59.5414 10.181L54.1464 6.27611H60.814L62.7828 0H62.7937Z" fill="white"/>
<path opacity="0.7" d="M89.5405 5.67798L91.5854 12.052H98.1552L92.7819 15.8699L94.8268 22.146L89.5514 18.3172L84.1564 22.146L86.2121 15.8699L80.8171 12.052H87.4848L89.5405 5.67798Z" fill="white"/>
<path opacity="0.7" d="M35.3724 5.67798L37.4173 12.052H43.9871L38.5921 15.8699L40.6478 22.146L35.3724 18.3172L29.9774 22.146L32.0332 15.8699L26.6381 12.052H33.3058L35.3616 5.67798H35.3724Z" fill="white"/>
<path opacity="0.7" d="M108.837 25.9636L110.892 32.2397H117.462L112.165 36.1446L114.221 42.4207L108.826 38.4941L103.431 42.4207L105.486 36.1446L100.189 32.2397H106.759L108.815 25.9636H108.837Z" fill="white"/>
<path opacity="0.7" d="M15.9676 25.9636L18.0234 32.2397H24.5932L19.296 36.1446L21.2648 42.4207L15.9676 38.4941L10.5726 42.4207L12.6284 36.1446L7.33119 32.2397H13.901L15.9568 25.9636H15.9676Z" fill="white"/>
<path opacity="0.7" d="M116.385 54.1682L118.43 60.4443H125L119.627 64.2622L121.672 70.5383L116.396 66.7095L111.001 70.5383L113.057 64.2622L107.76 60.4443H114.33L116.396 54.1682H116.385Z" fill="white"/>
<path opacity="0.7" d="M8.62557 54.1682L10.6813 60.4443H17.2294L11.954 64.2622L13.901 70.5383L8.62557 66.7095L3.23051 70.5383L5.28629 64.2622L-0.0108757 60.4443H6.55891L8.61469 54.1682H8.62557Z" fill="white"/>
<path opacity="0.7" d="M89.5405 100.113L91.5854 106.389H98.1552L92.7819 110.294L94.8268 116.57L89.5514 112.643L84.1564 116.57L86.2121 110.294L80.8171 106.389H87.4848L89.5405 100.113Z" fill="white"/>
<path opacity="0.7" d="M62.7937 107.259L64.8495 113.535H71.5171L66.1221 117.462L68.1779 123.716L62.7828 119.811L57.4856 123.716L59.5414 117.462L54.1464 113.535H60.814L62.7828 107.259H62.7937Z" fill="white"/>
<path opacity="0.7" d="M36.1447 100.113L38.2005 106.389H44.8682L39.4731 110.294L41.5289 116.57L36.1338 112.643L30.8367 116.57L32.8925 110.294L27.5191 106.389H34.0672L36.123 100.113H36.1447Z" fill="white"/>
<path opacity="0.7" d="M15.9676 81.1108L18.0234 87.3869H24.5932L19.296 91.2048L21.2648 97.5788L15.9676 93.6522L10.5726 97.5788L12.6284 91.2048L7.33119 87.3869H13.901L15.9568 81.1108H15.9676Z" fill="white"/>
<path d="M109.631 101.386H106.324C105.149 97.6876 103.355 94.2069 101.027 91.1069H104.257C104.486 91.1069 104.703 91.2048 104.834 91.4006C106.803 94.5441 108.402 97.8943 109.631 101.397V101.386Z" fill="#0AA9FA"/>
<path opacity="0.7" d="M109.631 101.386H106.324C105.149 97.6876 103.355 94.2069 101.027 91.1069H104.257C104.486 91.1069 104.703 91.2048 104.834 91.4006C106.803 94.5441 108.402 97.8943 109.631 101.397V101.386Z" fill="url(#paint0_linear_223_2)"/>
<path d="M106.313 101.386H109.642C112.198 94.283 115.472 87.4631 119.42 81.0129H116.19C115.939 81.0129 115.711 81.1652 115.613 81.3936C111.806 87.6915 108.684 94.3918 106.313 101.386Z" fill="#0AA9FA"/>
</g>
<defs>
<linearGradient id="paint0_linear_223_2" x1="102.887" y1="90.9547" x2="108.304" y2="101.603" gradientUnits="userSpaceOnUse">
<stop stop-color="#CB3D3D" stop-opacity="0"/>
<stop offset="1"/>
</linearGradient>
<clipPath id="clip0_223_2">
<rect width="125" height="123.727" fill="white"/>
</clipPath>
</defs>
</svg>
