<svg width="536" height="559" viewBox="0 0 536 559" fill="none" xmlns="http://www.w3.org/2000/svg">
<path d="M54.0202 102.596C59.7503 85.3956 70.1162 70.1107 83.9763 58.4243L111.918 34.8643C136.592 14.0602 169.892 6.66302 201.053 15.0642L430.233 76.8519L450.744 84.2562C464.136 89.0907 476.305 96.8042 486.392 106.853C497.328 117.747 505.516 131.086 510.281 145.768L516.043 163.523L525.511 214.695L532.806 309.136C533.908 323.398 531.891 337.729 526.893 351.132L496.693 432.138C486.915 458.364 466.442 479.192 440.388 489.418L307.544 541.563C282.625 551.344 254.799 550.562 230.469 539.397L103.093 480.941C77.4301 469.164 58.0554 446.939 49.8878 419.91L10.6225 289.968C4.73485 270.484 5.02787 249.654 11.4613 230.343L54.0202 102.596Z" fill="#0C202D" stroke="white" stroke-width="3"/>
<path d="M161.213 459.451L161.156 459.434L161.097 459.431C137.738 458.159 121.206 449.538 109.603 435.713C97.9848 421.869 91.2711 402.763 87.6573 380.464C81.5166 342.573 84.3494 295.647 87.1016 250.056C87.5898 241.968 88.0755 233.922 88.5081 225.976C91.3678 173.451 116.787 137.058 153.196 114.416C189.625 91.7605 237.078 82.8605 283.972 85.4135C330.789 87.9624 384.911 114.714 426.62 154.015C468.331 193.316 497.535 245.075 494.677 297.57C491.815 350.126 465.065 407.509 410.754 443.298C356.453 479.081 274.523 493.326 161.213 459.451Z" stroke="white"/>
<path d="M191.95 404.352L191.923 404.344L191.894 404.343C174.989 403.422 163.004 397.396 154.582 387.751C146.152 378.098 141.269 364.798 138.624 349.297C134.13 322.958 136.106 290.355 138.024 258.692C138.365 253.075 138.704 247.488 139.004 241.971C140.992 205.462 159.314 180.194 185.607 164.504C211.911 148.807 246.199 142.695 280.093 144.54C313.948 146.383 353.107 165.064 383.306 192.437C413.507 219.811 434.7 255.833 432.713 292.327C430.724 328.851 411.477 368.699 372.27 393.496C333.066 418.292 273.871 428.061 191.95 404.352Z" stroke="white" stroke-width="0.5"/>
</svg>
